<?xml version="1.0" encoding="UTF-8" standalone="no"?>
<!DOCTYPE svg PUBLIC "-//W3C//DTD SVG 1.1//EN"
 "http://www.w3.org/Graphics/SVG/1.1/DTD/svg11.dtd">
<!-- Generated by graphviz version 2.40.1 (20161225.0304)
 -->
<!-- Title: G Pages: 1 -->
<svg width="433pt" height="73pt"
 viewBox="0.00 0.00 433.00 73.00" xmlns="http://www.w3.org/2000/svg" xmlns:xlink="http://www.w3.org/1999/xlink">
<g id="graph0" class="graph" transform="scale(1 1) rotate(0) translate(4 69)">
<title>G</title>
<polygon fill="#ffffff" stroke="transparent" points="-4,4 -4,-69 429,-69 429,4 -4,4"/>
<text text-anchor="middle" x="42" y="-51.4" font-family="Times,serif" font-size="12.00" fill="#000000">DFA for hello</text>
<!-- s -->
<!-- A -->
<g id="node2" class="node">
<title>A</title>
<ellipse fill="#ffffff" stroke="#000000" cx="91" cy="-22" rx="18" ry="18"/>
<text text-anchor="middle" x="91" y="-18.3" font-family="Times,serif" font-size="14.00" fill="#000000">A</text>
</g>
<!-- s&#45;&gt;A -->
<g id="edge1" class="edge">
<title>s&#45;&gt;A</title>
<path fill="none" stroke="#000000" d="M36.0449,-22C44.1172,-22 53.8236,-22 62.8183,-22"/>
<polygon fill="#000000" stroke="#000000" points="62.9097,-25.5001 72.9096,-22 62.9096,-18.5001 62.9097,-25.5001"/>
</g>
<!-- B -->
<g id="node3" class="node">
<title>B</title>
<ellipse fill="#ffffff" stroke="#000000" cx="169" cy="-22" rx="18" ry="18"/>
<text text-anchor="middle" x="169" y="-18.3" font-family="Times,serif" font-size="14.00" fill="#000000">B</text>
</g>
<!-- A&#45;&gt;B -->
<g id="edge2" class="edge">
<title>A&#45;&gt;B</title>
<path fill="none" stroke="#000000" d="M109.0908,-22C118.4741,-22 130.1501,-22 140.6954,-22"/>
<polygon fill="#000000" stroke="#000000" points="140.7371,-25.5001 150.7371,-22 140.7371,-18.5001 140.7371,-25.5001"/>
<text text-anchor="middle" x="130" y="-25" font-family="Times,serif" font-size="10.00" fill="#000000">h</text>
</g>
<!-- C -->
<g id="node4" class="node">
<title>C</title>
<ellipse fill="#ffffff" stroke="#000000" cx="245" cy="-22" rx="18" ry="18"/>
<text text-anchor="middle" x="245" y="-18.3" font-family="Times,serif" font-size="14.00" fill="#000000">C</text>
</g>
<!-- B&#45;&gt;C -->
<g id="edge3" class="edge">
<title>B&#45;&gt;C</title>
<path fill="none" stroke="#000000" d="M187.0109,-22C195.8434,-22 206.6901,-22 216.6035,-22"/>
<polygon fill="#000000" stroke="#000000" points="216.855,-25.5001 226.855,-22 216.8549,-18.5001 216.855,-25.5001"/>
<text text-anchor="middle" x="207" y="-25" font-family="Times,serif" font-size="10.00" fill="#000000">l</text>
</g>
<!-- D -->
<g id="node5" class="node">
<title>D</title>
<ellipse fill="#ffffff" stroke="#000000" cx="321" cy="-22" rx="18" ry="18"/>
<text text-anchor="middle" x="321" y="-18.3" font-family="Times,serif" font-size="14.00" fill="#000000">D</text>
</g>
<!-- C&#45;&gt;D -->
<g id="edge4" class="edge">
<title>C&#45;&gt;D</title>
<path fill="none" stroke="#000000" d="M263.0109,-22C271.8434,-22 282.6901,-22 292.6035,-22"/>
<polygon fill="#000000" stroke="#000000" points="292.855,-25.5001 302.855,-22 292.8549,-18.5001 292.855,-25.5001"/>
<text text-anchor="middle" x="283" y="-25" font-family="Times,serif" font-size="10.00" fill="#000000">l</text>
</g>
<!-- E -->
<g id="node6" class="node">
<title>E</title>
<ellipse fill="#ffffff" stroke="#ff0000" cx="403" cy="-22" rx="18" ry="18"/>
<ellipse fill="none" stroke="#ff0000" cx="403" cy="-22" rx="22" ry="22"/>
<text text-anchor="middle" x="403" y="-18.3" font-family="Times,serif" font-size="14.00" fill="#000000">E</text>
</g>
<!-- D&#45;&gt;E -->
<g id="edge5" class="edge">
<title>D&#45;&gt;E</title>
<path fill="none" stroke="#000000" d="M339.1985,-22C348.3992,-22 359.8462,-22 370.4939,-22"/>
<polygon fill="#000000" stroke="#000000" points="370.7623,-25.5001 380.7623,-22 370.7623,-18.5001 370.7623,-25.5001"/>
<text text-anchor="middle" x="360" y="-25" font-family="Times,serif" font-size="10.00" fill="#000000">o</text>
</g>
</g>
</svg>
