<?xml version="1.0" encoding="UTF-8" standalone="no"?>
<!DOCTYPE svg PUBLIC "-//W3C//DTD SVG 1.1//EN"
 "http://www.w3.org/Graphics/SVG/1.1/DTD/svg11.dtd">
<!-- Generated by graphviz version 2.40.1 (20161225.0304)
 -->
<!-- Title: G Pages: 1 -->
<svg width="434pt" height="759pt"
 viewBox="0.00 0.00 434.00 759.00" xmlns="http://www.w3.org/2000/svg" xmlns:xlink="http://www.w3.org/1999/xlink">
<g id="graph0" class="graph" transform="scale(1 1) rotate(0) translate(4 755)">
<title>G</title>
<polygon fill="#ffffff" stroke="transparent" points="-4,4 -4,-755 430,-755 430,4 -4,4"/>
<text text-anchor="middle" x="111" y="-727.8" font-family="Times,serif" font-size="24.00" fill="#000000">Syntax Tree for hello</text>
<!-- 94255617108464 -->
<g id="node1" class="node">
<title>94255617108464</title>
<polygon fill="none" stroke="#0e7702" points="277.5,-640.5 277.5,-716.5 368.5,-716.5 368.5,-640.5 277.5,-640.5"/>
<text text-anchor="middle" x="323" y="-701.3" font-family="Times,serif" font-size="14.00" fill="#000000">.</text>
<polyline fill="none" stroke="#0e7702" points="277.5,-693.5 368.5,-693.5 "/>
<text text-anchor="middle" x="323" y="-678.3" font-family="Times,serif" font-size="14.00" fill="#000000">Nullable : No</text>
<text text-anchor="middle" x="323" y="-663.3" font-family="Times,serif" font-size="14.00" fill="#000000">Firstpos : (1)</text>
<text text-anchor="middle" x="323" y="-648.3" font-family="Times,serif" font-size="14.00" fill="#000000">Lastpos : (6)</text>
</g>
<!-- 94255617108208 -->
<g id="node2" class="node">
<title>94255617108208</title>
<polygon fill="none" stroke="#0e7702" points="222.5,-520 222.5,-596 313.5,-596 313.5,-520 222.5,-520"/>
<text text-anchor="middle" x="268" y="-580.8" font-family="Times,serif" font-size="14.00" fill="#000000">.</text>
<polyline fill="none" stroke="#0e7702" points="222.5,-573 313.5,-573 "/>
<text text-anchor="middle" x="268" y="-557.8" font-family="Times,serif" font-size="14.00" fill="#000000">Nullable : No</text>
<text text-anchor="middle" x="268" y="-542.8" font-family="Times,serif" font-size="14.00" fill="#000000">Firstpos : (1)</text>
<text text-anchor="middle" x="268" y="-527.8" font-family="Times,serif" font-size="14.00" fill="#000000">Lastpos : (5)</text>
</g>
<!-- 94255617108464&#45;&#45;94255617108208 -->
<g id="edge1" class="edge">
<title>94255617108464&#45;&#45;94255617108208</title>
<path fill="none" stroke="#000000" d="M305.5977,-640.373C299.1775,-626.3071 291.9047,-610.373 285.4779,-596.2925"/>
</g>
<!-- 94255617108592 -->
<g id="node3" class="node">
<title>94255617108592</title>
<polygon fill="none" stroke="#0e7702" points="332,-512.5 332,-603.5 426,-603.5 426,-512.5 332,-512.5"/>
<text text-anchor="middle" x="379" y="-588.3" font-family="Times,serif" font-size="14.00" fill="#000000">#</text>
<polyline fill="none" stroke="#0e7702" points="332,-580.5 426,-580.5 "/>
<text text-anchor="middle" x="379" y="-565.3" font-family="Times,serif" font-size="14.00" fill="#000000">Nullable : No</text>
<text text-anchor="middle" x="379" y="-550.3" font-family="Times,serif" font-size="14.00" fill="#000000">Firstpos : (6)</text>
<text text-anchor="middle" x="379" y="-535.3" font-family="Times,serif" font-size="14.00" fill="#000000">Lastpos : (6)</text>
<text text-anchor="middle" x="379" y="-520.3" font-family="Times,serif" font-size="14.00" fill="#000000">Followpos : ()</text>
</g>
<!-- 94255617108464&#45;&#45;94255617108592 -->
<g id="edge2" class="edge">
<title>94255617108464&#45;&#45;94255617108592</title>
<path fill="none" stroke="#000000" d="M340.7188,-640.373C346.1021,-628.7893 352.0742,-615.9387 357.6691,-603.8996"/>
</g>
<!-- 94255617107952 -->
<g id="node4" class="node">
<title>94255617107952</title>
<polygon fill="none" stroke="#0e7702" points="167.5,-392 167.5,-468 258.5,-468 258.5,-392 167.5,-392"/>
<text text-anchor="middle" x="213" y="-452.8" font-family="Times,serif" font-size="14.00" fill="#000000">.</text>
<polyline fill="none" stroke="#0e7702" points="167.5,-445 258.5,-445 "/>
<text text-anchor="middle" x="213" y="-429.8" font-family="Times,serif" font-size="14.00" fill="#000000">Nullable : No</text>
<text text-anchor="middle" x="213" y="-414.8" font-family="Times,serif" font-size="14.00" fill="#000000">Firstpos : (1)</text>
<text text-anchor="middle" x="213" y="-399.8" font-family="Times,serif" font-size="14.00" fill="#000000">Lastpos : (4)</text>
</g>
<!-- 94255617108208&#45;&#45;94255617107952 -->
<g id="edge3" class="edge">
<title>94255617108208&#45;&#45;94255617107952</title>
<path fill="none" stroke="#000000" d="M251.6471,-519.9423C244.6175,-503.5825 236.418,-484.5002 229.3849,-468.132"/>
</g>
<!-- 94255617108336 -->
<g id="node5" class="node">
<title>94255617108336</title>
<polygon fill="none" stroke="#0e7702" points="277,-384.5 277,-475.5 371,-475.5 371,-384.5 277,-384.5"/>
<text text-anchor="middle" x="324" y="-460.3" font-family="Times,serif" font-size="14.00" fill="#000000">o</text>
<polyline fill="none" stroke="#0e7702" points="277,-452.5 371,-452.5 "/>
<text text-anchor="middle" x="324" y="-437.3" font-family="Times,serif" font-size="14.00" fill="#000000">Nullable : No</text>
<text text-anchor="middle" x="324" y="-422.3" font-family="Times,serif" font-size="14.00" fill="#000000">Firstpos : (5)</text>
<text text-anchor="middle" x="324" y="-407.3" font-family="Times,serif" font-size="14.00" fill="#000000">Lastpos : (5)</text>
<text text-anchor="middle" x="324" y="-392.3" font-family="Times,serif" font-size="14.00" fill="#000000">Followpos : ()</text>
</g>
<!-- 94255617108208&#45;&#45;94255617108336 -->
<g id="edge4" class="edge">
<title>94255617108208&#45;&#45;94255617108336</title>
<path fill="none" stroke="#000000" d="M284.6502,-519.9423C290.7115,-506.088 297.6269,-490.2813 303.952,-475.824"/>
</g>
<!-- 94255617107696 -->
<g id="node6" class="node">
<title>94255617107696</title>
<polygon fill="none" stroke="#0e7702" points="112.5,-264 112.5,-340 203.5,-340 203.5,-264 112.5,-264"/>
<text text-anchor="middle" x="158" y="-324.8" font-family="Times,serif" font-size="14.00" fill="#000000">.</text>
<polyline fill="none" stroke="#0e7702" points="112.5,-317 203.5,-317 "/>
<text text-anchor="middle" x="158" y="-301.8" font-family="Times,serif" font-size="14.00" fill="#000000">Nullable : No</text>
<text text-anchor="middle" x="158" y="-286.8" font-family="Times,serif" font-size="14.00" fill="#000000">Firstpos : (1)</text>
<text text-anchor="middle" x="158" y="-271.8" font-family="Times,serif" font-size="14.00" fill="#000000">Lastpos : (3)</text>
</g>
<!-- 94255617107952&#45;&#45;94255617107696 -->
<g id="edge5" class="edge">
<title>94255617107952&#45;&#45;94255617107696</title>
<path fill="none" stroke="#000000" d="M196.6471,-391.9423C189.6175,-375.5825 181.418,-356.5002 174.3849,-340.132"/>
</g>
<!-- 94255617108080 -->
<g id="node7" class="node">
<title>94255617108080</title>
<polygon fill="none" stroke="#0e7702" points="222,-256.5 222,-347.5 316,-347.5 316,-256.5 222,-256.5"/>
<text text-anchor="middle" x="269" y="-332.3" font-family="Times,serif" font-size="14.00" fill="#000000">l</text>
<polyline fill="none" stroke="#0e7702" points="222,-324.5 316,-324.5 "/>
<text text-anchor="middle" x="269" y="-309.3" font-family="Times,serif" font-size="14.00" fill="#000000">Nullable : No</text>
<text text-anchor="middle" x="269" y="-294.3" font-family="Times,serif" font-size="14.00" fill="#000000">Firstpos : (4)</text>
<text text-anchor="middle" x="269" y="-279.3" font-family="Times,serif" font-size="14.00" fill="#000000">Lastpos : (4)</text>
<text text-anchor="middle" x="269" y="-264.3" font-family="Times,serif" font-size="14.00" fill="#000000">Followpos : ()</text>
</g>
<!-- 94255617107952&#45;&#45;94255617108080 -->
<g id="edge6" class="edge">
<title>94255617107952&#45;&#45;94255617108080</title>
<path fill="none" stroke="#000000" d="M229.6502,-391.9423C235.7115,-378.088 242.6269,-362.2813 248.952,-347.824"/>
</g>
<!-- 94255617107440 -->
<g id="node8" class="node">
<title>94255617107440</title>
<polygon fill="none" stroke="#0e7702" points="57.5,-136 57.5,-212 148.5,-212 148.5,-136 57.5,-136"/>
<text text-anchor="middle" x="103" y="-196.8" font-family="Times,serif" font-size="14.00" fill="#000000">.</text>
<polyline fill="none" stroke="#0e7702" points="57.5,-189 148.5,-189 "/>
<text text-anchor="middle" x="103" y="-173.8" font-family="Times,serif" font-size="14.00" fill="#000000">Nullable : No</text>
<text text-anchor="middle" x="103" y="-158.8" font-family="Times,serif" font-size="14.00" fill="#000000">Firstpos : (1)</text>
<text text-anchor="middle" x="103" y="-143.8" font-family="Times,serif" font-size="14.00" fill="#000000">Lastpos : (1)</text>
</g>
<!-- 94255617107696&#45;&#45;94255617107440 -->
<g id="edge7" class="edge">
<title>94255617107696&#45;&#45;94255617107440</title>
<path fill="none" stroke="#000000" d="M141.6471,-263.9423C134.6175,-247.5825 126.418,-228.5002 119.3849,-212.132"/>
</g>
<!-- 94255617107824 -->
<g id="node9" class="node">
<title>94255617107824</title>
<polygon fill="none" stroke="#0e7702" points="167,-128.5 167,-219.5 261,-219.5 261,-128.5 167,-128.5"/>
<text text-anchor="middle" x="214" y="-204.3" font-family="Times,serif" font-size="14.00" fill="#000000">l</text>
<polyline fill="none" stroke="#0e7702" points="167,-196.5 261,-196.5 "/>
<text text-anchor="middle" x="214" y="-181.3" font-family="Times,serif" font-size="14.00" fill="#000000">Nullable : No</text>
<text text-anchor="middle" x="214" y="-166.3" font-family="Times,serif" font-size="14.00" fill="#000000">Firstpos : (3)</text>
<text text-anchor="middle" x="214" y="-151.3" font-family="Times,serif" font-size="14.00" fill="#000000">Lastpos : (3)</text>
<text text-anchor="middle" x="214" y="-136.3" font-family="Times,serif" font-size="14.00" fill="#000000">Followpos : ()</text>
</g>
<!-- 94255617107696&#45;&#45;94255617107824 -->
<g id="edge8" class="edge">
<title>94255617107696&#45;&#45;94255617107824</title>
<path fill="none" stroke="#000000" d="M174.6502,-263.9423C180.7115,-250.088 187.6269,-234.2813 193.952,-219.824"/>
</g>
<!-- 94255617107312 -->
<g id="node10" class="node">
<title>94255617107312</title>
<polygon fill="none" stroke="#0e7702" points="0,-.5 0,-91.5 94,-91.5 94,-.5 0,-.5"/>
<text text-anchor="middle" x="47" y="-76.3" font-family="Times,serif" font-size="14.00" fill="#000000">h</text>
<polyline fill="none" stroke="#0e7702" points="0,-68.5 94,-68.5 "/>
<text text-anchor="middle" x="47" y="-53.3" font-family="Times,serif" font-size="14.00" fill="#000000">Nullable : No</text>
<text text-anchor="middle" x="47" y="-38.3" font-family="Times,serif" font-size="14.00" fill="#000000">Firstpos : (1)</text>
<text text-anchor="middle" x="47" y="-23.3" font-family="Times,serif" font-size="14.00" fill="#000000">Lastpos : (1)</text>
<text text-anchor="middle" x="47" y="-8.3" font-family="Times,serif" font-size="14.00" fill="#000000">Followpos : ()</text>
</g>
<!-- 94255617107440&#45;&#45;94255617107312 -->
<g id="edge9" class="edge">
<title>94255617107440&#45;&#45;94255617107312</title>
<path fill="none" stroke="#000000" d="M86.3498,-135.9423C80.2885,-122.088 73.3731,-106.2813 67.048,-91.824"/>
</g>
<!-- 94255617107568 -->
<g id="node11" class="node">
<title>94255617107568</title>
<polygon fill="none" stroke="#0e7702" points="112.5,-.5 112.5,-91.5 207.5,-91.5 207.5,-.5 112.5,-.5"/>
<text text-anchor="middle" x="160" y="-76.3" font-family="Times,serif" font-size="14.00" fill="#000000">e</text>
<polyline fill="none" stroke="#0e7702" points="112.5,-68.5 207.5,-68.5 "/>
<text text-anchor="middle" x="160" y="-53.3" font-family="Times,serif" font-size="14.00" fill="#000000">Nullable : Yes</text>
<text text-anchor="middle" x="160" y="-38.3" font-family="Times,serif" font-size="14.00" fill="#000000">Firstpos : ()</text>
<text text-anchor="middle" x="160" y="-23.3" font-family="Times,serif" font-size="14.00" fill="#000000">Lastpos : ()</text>
<text text-anchor="middle" x="160" y="-8.3" font-family="Times,serif" font-size="14.00" fill="#000000">Followpos : ()</text>
</g>
<!-- 94255617107440&#45;&#45;94255617107568 -->
<g id="edge10" class="edge">
<title>94255617107440&#45;&#45;94255617107568</title>
<path fill="none" stroke="#000000" d="M119.9476,-135.9423C126.1171,-122.088 133.156,-106.2813 139.594,-91.824"/>
</g>
</g>
</svg>
