<?xml version="1.0" encoding="UTF-8" standalone="no"?>
<!DOCTYPE svg PUBLIC "-//W3C//DTD SVG 1.1//EN"
 "http://www.w3.org/Graphics/SVG/1.1/DTD/svg11.dtd">
<!-- Generated by graphviz version 2.40.1 (20161225.0304)
 -->
<!-- Title: G Pages: 1 -->
<svg width="202pt" height="102pt"
 viewBox="0.00 0.00 202.00 102.00" xmlns="http://www.w3.org/2000/svg" xmlns:xlink="http://www.w3.org/1999/xlink">
<g id="graph0" class="graph" transform="scale(1 1) rotate(0) translate(4 98)">
<title>G</title>
<polygon fill="#ffffff" stroke="transparent" points="-4,4 -4,-98 198,-98 198,4 -4,4"/>
<text text-anchor="middle" x="39" y="-80.4" font-family="Times,serif" font-size="12.00" fill="#000000">DFA for ab*</text>
<!-- s -->
<!-- A -->
<g id="node2" class="node">
<title>A</title>
<ellipse fill="#ffffff" stroke="#000000" cx="91" cy="-22" rx="18" ry="18"/>
<text text-anchor="middle" x="91" y="-18.3" font-family="Times,serif" font-size="14.00" fill="#000000">A</text>
</g>
<!-- s&#45;&gt;A -->
<g id="edge1" class="edge">
<title>s&#45;&gt;A</title>
<path fill="none" stroke="#000000" d="M36.0449,-22C44.1172,-22 53.8236,-22 62.8183,-22"/>
<polygon fill="#000000" stroke="#000000" points="62.9097,-25.5001 72.9096,-22 62.9096,-18.5001 62.9097,-25.5001"/>
</g>
<!-- B -->
<g id="node3" class="node">
<title>B</title>
<ellipse fill="#ffffff" stroke="#ff0000" cx="172" cy="-22" rx="18" ry="18"/>
<ellipse fill="none" stroke="#ff0000" cx="172" cy="-22" rx="22" ry="22"/>
<text text-anchor="middle" x="172" y="-18.3" font-family="Times,serif" font-size="14.00" fill="#000000">B</text>
</g>
<!-- A&#45;&gt;B -->
<g id="edge2" class="edge">
<title>A&#45;&gt;B</title>
<path fill="none" stroke="#000000" d="M109.3802,-22C118.4121,-22 129.5612,-22 139.9371,-22"/>
<polygon fill="#000000" stroke="#000000" points="139.9484,-25.5001 149.9483,-22 139.9483,-18.5001 139.9484,-25.5001"/>
<text text-anchor="middle" x="129.5" y="-25" font-family="Times,serif" font-size="10.00" fill="#000000">a</text>
</g>
<!-- B&#45;&gt;B -->
<g id="edge3" class="edge">
<title>B&#45;&gt;B</title>
<path fill="none" stroke="#000000" d="M164.3173,-42.9908C163.3688,-53.0872 165.9297,-62 172,-62 175.8888,-62 178.3373,-58.3422 179.3456,-53.0587"/>
<polygon fill="#000000" stroke="#000000" points="182.846,-53.1023 179.6827,-42.9908 175.8499,-52.868 182.846,-53.1023"/>
<text text-anchor="middle" x="172" y="-65" font-family="Times,serif" font-size="10.00" fill="#000000">b</text>
</g>
</g>
</svg>
