<?xml version="1.0" encoding="UTF-8" standalone="no"?>
<!DOCTYPE svg PUBLIC "-//W3C//DTD SVG 1.1//EN"
 "http://www.w3.org/Graphics/SVG/1.1/DTD/svg11.dtd">
<!-- Generated by graphviz version 2.40.1 (20161225.0304)
 -->
<!-- Title: G Pages: 1 -->
<svg width="271pt" height="503pt"
 viewBox="0.00 0.00 271.00 503.00" xmlns="http://www.w3.org/2000/svg" xmlns:xlink="http://www.w3.org/1999/xlink">
<g id="graph0" class="graph" transform="scale(1 1) rotate(0) translate(4 499)">
<title>G</title>
<polygon fill="#ffffff" stroke="transparent" points="-4,4 -4,-499 267,-499 267,4 -4,4"/>
<text text-anchor="middle" x="104.5" y="-471.8" font-family="Times,serif" font-size="24.00" fill="#000000">Syntax Tree for ab*</text>
<!-- 94104307107616 -->
<g id="node1" class="node">
<title>94104307107616</title>
<polygon fill="none" stroke="#0e7702" points="113.5,-384.5 113.5,-460.5 204.5,-460.5 204.5,-384.5 113.5,-384.5"/>
<text text-anchor="middle" x="159" y="-445.3" font-family="Times,serif" font-size="14.00" fill="#000000">.</text>
<polyline fill="none" stroke="#0e7702" points="113.5,-437.5 204.5,-437.5 "/>
<text text-anchor="middle" x="159" y="-422.3" font-family="Times,serif" font-size="14.00" fill="#000000">Nullable : No</text>
<text text-anchor="middle" x="159" y="-407.3" font-family="Times,serif" font-size="14.00" fill="#000000">Firstpos : (1)</text>
<text text-anchor="middle" x="159" y="-392.3" font-family="Times,serif" font-size="14.00" fill="#000000">Lastpos : (3)</text>
</g>
<!-- 94104307107232 -->
<g id="node2" class="node">
<title>94104307107232</title>
<polygon fill="none" stroke="#0e7702" points="55,-264 55,-340 151,-340 151,-264 55,-264"/>
<text text-anchor="middle" x="103" y="-324.8" font-family="Times,serif" font-size="14.00" fill="#000000">.</text>
<polyline fill="none" stroke="#0e7702" points="55,-317 151,-317 "/>
<text text-anchor="middle" x="103" y="-301.8" font-family="Times,serif" font-size="14.00" fill="#000000">Nullable : No</text>
<text text-anchor="middle" x="103" y="-286.8" font-family="Times,serif" font-size="14.00" fill="#000000">Firstpos : (1)</text>
<text text-anchor="middle" x="103" y="-271.8" font-family="Times,serif" font-size="14.00" fill="#000000">Lastpos : (1,2)</text>
</g>
<!-- 94104307107616&#45;&#45;94104307107232 -->
<g id="edge1" class="edge">
<title>94104307107616&#45;&#45;94104307107232</title>
<path fill="none" stroke="#000000" d="M141.2813,-384.373C134.7444,-370.3071 127.3393,-354.373 120.7957,-340.2925"/>
</g>
<!-- 94104307107744 -->
<g id="node3" class="node">
<title>94104307107744</title>
<polygon fill="none" stroke="#0e7702" points="169,-256.5 169,-347.5 263,-347.5 263,-256.5 169,-256.5"/>
<text text-anchor="middle" x="216" y="-332.3" font-family="Times,serif" font-size="14.00" fill="#000000">#</text>
<polyline fill="none" stroke="#0e7702" points="169,-324.5 263,-324.5 "/>
<text text-anchor="middle" x="216" y="-309.3" font-family="Times,serif" font-size="14.00" fill="#000000">Nullable : No</text>
<text text-anchor="middle" x="216" y="-294.3" font-family="Times,serif" font-size="14.00" fill="#000000">Firstpos : (3)</text>
<text text-anchor="middle" x="216" y="-279.3" font-family="Times,serif" font-size="14.00" fill="#000000">Lastpos : (3)</text>
<text text-anchor="middle" x="216" y="-264.3" font-family="Times,serif" font-size="14.00" fill="#000000">Followpos : ()</text>
</g>
<!-- 94104307107616&#45;&#45;94104307107744 -->
<g id="edge2" class="edge">
<title>94104307107616&#45;&#45;94104307107744</title>
<path fill="none" stroke="#000000" d="M177.0352,-384.373C182.5146,-372.7893 188.5933,-359.9387 194.2881,-347.8996"/>
</g>
<!-- 94104307107104 -->
<g id="node4" class="node">
<title>94104307107104</title>
<polygon fill="none" stroke="#0e7702" points="0,-128.5 0,-219.5 94,-219.5 94,-128.5 0,-128.5"/>
<text text-anchor="middle" x="47" y="-204.3" font-family="Times,serif" font-size="14.00" fill="#000000">a</text>
<polyline fill="none" stroke="#0e7702" points="0,-196.5 94,-196.5 "/>
<text text-anchor="middle" x="47" y="-181.3" font-family="Times,serif" font-size="14.00" fill="#000000">Nullable : No</text>
<text text-anchor="middle" x="47" y="-166.3" font-family="Times,serif" font-size="14.00" fill="#000000">Firstpos : (1)</text>
<text text-anchor="middle" x="47" y="-151.3" font-family="Times,serif" font-size="14.00" fill="#000000">Lastpos : (1)</text>
<text text-anchor="middle" x="47" y="-136.3" font-family="Times,serif" font-size="14.00" fill="#000000">Followpos : ()</text>
</g>
<!-- 94104307107232&#45;&#45;94104307107104 -->
<g id="edge3" class="edge">
<title>94104307107232&#45;&#45;94104307107104</title>
<path fill="none" stroke="#000000" d="M86.3498,-263.9423C80.2885,-250.088 73.3731,-234.2813 67.048,-219.824"/>
</g>
<!-- 94104307107360 -->
<g id="node5" class="node">
<title>94104307107360</title>
<polygon fill="none" stroke="#0e7702" points="112.5,-136 112.5,-212 207.5,-212 207.5,-136 112.5,-136"/>
<text text-anchor="middle" x="160" y="-196.8" font-family="Times,serif" font-size="14.00" fill="#000000">*</text>
<polyline fill="none" stroke="#0e7702" points="112.5,-189 207.5,-189 "/>
<text text-anchor="middle" x="160" y="-173.8" font-family="Times,serif" font-size="14.00" fill="#000000">Nullable : Yes</text>
<text text-anchor="middle" x="160" y="-158.8" font-family="Times,serif" font-size="14.00" fill="#000000">Firstpos : (2)</text>
<text text-anchor="middle" x="160" y="-143.8" font-family="Times,serif" font-size="14.00" fill="#000000">Lastpos : (2)</text>
</g>
<!-- 94104307107232&#45;&#45;94104307107360 -->
<g id="edge4" class="edge">
<title>94104307107232&#45;&#45;94104307107360</title>
<path fill="none" stroke="#000000" d="M119.9476,-263.9423C127.2328,-247.5825 135.7304,-228.5002 143.0193,-212.132"/>
</g>
<!-- 94104307107488 -->
<g id="node6" class="node">
<title>94104307107488</title>
<polygon fill="none" stroke="#0e7702" points="113,-.5 113,-91.5 207,-91.5 207,-.5 113,-.5"/>
<text text-anchor="middle" x="160" y="-76.3" font-family="Times,serif" font-size="14.00" fill="#000000">b</text>
<polyline fill="none" stroke="#0e7702" points="113,-68.5 207,-68.5 "/>
<text text-anchor="middle" x="160" y="-53.3" font-family="Times,serif" font-size="14.00" fill="#000000">Nullable : No</text>
<text text-anchor="middle" x="160" y="-38.3" font-family="Times,serif" font-size="14.00" fill="#000000">Firstpos : (2)</text>
<text text-anchor="middle" x="160" y="-23.3" font-family="Times,serif" font-size="14.00" fill="#000000">Lastpos : (2)</text>
<text text-anchor="middle" x="160" y="-8.3" font-family="Times,serif" font-size="14.00" fill="#000000">Followpos : ()</text>
</g>
<!-- 94104307107360&#45;&#45;94104307107488 -->
<g id="edge5" class="edge">
<title>94104307107360&#45;&#45;94104307107488</title>
<path fill="none" stroke="#000000" d="M160,-135.9423C160,-122.088 160,-106.2813 160,-91.824"/>
</g>
</g>
</svg>
